<svg width="2001" height="450" viewBox="0 0 2001 450" fill="none" xmlns="http://www.w3.org/2000/svg">
<path d="M150 -2.38419e-05H100L3.72529e-07 125V225L100 350H150L250 225V125L150 -2.38419e-05ZM200 212.5L125 306L50 212.5V137.5L125 43.5L200 137.5V212.5ZM599.902 50V-2.38419e-05H399.902V350H599.902V300H449.902V200H549.902V150H449.902V50H599.902ZM775 -2.38419e-05V104C765 102 752 100 737.5 100C662.5 100 612.5 150 612.5 225C612.5 300 662.5 350 737.5 350H825V-2.38419e-05H775ZM737.5 300C700 300 662.5 275 662.5 225C662.5 175 700 150 737.5 150C749 150 763 152.5 775 155.5V300H737.5ZM1025 100V250C1025 287.5 1000 300 975 300C950 300 925 287.5 925 250V100H875V275C875 325 912.5 350 950 350C987.5 350 1025 325 1025 275V350H1075V100H1025ZM1262.5 100C1212.5 100 1175 137.5 1175 200V100H1125V350H1175V225C1175 175 1200 150 1237.5 150C1275 150 1300 175 1300 225V350H1350V200C1350 137.5 1312.5 100 1262.5 100ZM1499.9 -2.38419e-05H1449.9V50H1499.9V-2.38419e-05ZM1499.9 300V100H1399.9V150H1449.9V300H1399.9V350H1549.9V300H1499.9ZM1725.29 150V100H1650.29V-2.38419e-05H1600.29V100H1550.29V150H1600.29V275C1600.29 325 1625.29 350 1675.29 350H1725.29V300H1650.29V150H1725.29ZM1950.39 100V200C1950.39 250 1925.39 275 1887.89 275C1850.39 275 1825.39 250 1825.39 200V100H1775.39V225C1775.39 287.5 1812.89 325 1862.89 325C1912.89 325 1950.39 287.5 1950.39 225V325C1950.39 375 1925.39 400 1875.39 400C1812.89 400 1775.39 350 1775.39 350V412.5C1775.39 412.5 1800.39 450 1875.39 450C1950.39 450 2000.39 412.5 2000.39 325V100H1950.39Z" fill="black"/>
</svg>
