<svg width="406" height="366" viewBox="0 0 406 366" fill="none" xmlns="http://www.w3.org/2000/svg">
<g clip-path="url(#clip0_580:6072)">
<path d="M100.593 92.8417C93.6123 71.9604 72.0538 60.3549 57.8713 65.1023C43.6889 69.8498 33.4491 92.0995 40.4302 112.981C46.8921 132.309 66.4726 143.467 79.9426 141.476C79.8454 141.645 79.7815 141.831 79.7542 142.024L79.3423 145.462C79.3109 145.724 79.347 145.989 79.4471 146.234C79.5472 146.478 79.708 146.692 79.9142 146.857C80.1205 147.021 80.3653 147.13 80.6255 147.173C80.8857 147.217 81.1526 147.192 81.4009 147.103L88.3395 144.614C88.5877 144.525 88.8091 144.374 88.9827 144.175C89.1562 143.976 89.276 143.736 89.3308 143.478C89.3856 143.22 89.3736 142.952 89.2958 142.7C89.2181 142.448 89.0772 142.22 88.8865 142.037L86.3854 139.645C86.2965 139.564 86.1983 139.493 86.0928 139.434C98.1067 132.956 107.069 112.212 100.593 92.8417Z" fill="#F6F6F6"/>
<path d="M75.3207 77.4789C81.1183 80.4728 85.5458 85.5797 87.6894 91.7455C89.833 97.9112 89.529 104.665 86.8402 110.613C86.2398 111.981 88.4477 112.7 89.0441 111.341C91.8672 104.906 92.1544 97.6398 89.848 91.0011C87.5416 84.3624 82.8123 78.8416 76.6083 75.5459C75.2989 74.8516 74.0016 76.7794 75.3207 77.4789Z" fill="white"/>
<path d="M383.234 62.4042C376.253 41.5229 354.694 29.9174 340.512 34.6648C326.33 39.4123 316.09 61.662 323.071 82.5433C329.533 101.872 349.113 113.03 362.583 111.039C362.486 111.208 362.422 111.394 362.395 111.587L361.983 115.024C361.952 115.286 361.988 115.552 362.088 115.796C362.188 116.04 362.349 116.255 362.555 116.419C362.761 116.584 363.006 116.693 363.266 116.736C363.526 116.779 363.793 116.755 364.042 116.666L370.98 114.176C371.228 114.087 371.45 113.936 371.623 113.737C371.797 113.539 371.917 113.299 371.971 113.041C372.026 112.782 372.014 112.515 371.936 112.262C371.859 112.01 371.718 111.782 371.527 111.6L369.026 109.207C368.937 109.126 368.839 109.055 368.733 108.997C380.747 102.519 389.71 81.7745 383.234 62.4042Z" fill="#F6F6F6"/>
<path d="M357.961 47.0414C363.759 50.0353 368.186 55.1422 370.33 61.308C372.474 67.4737 372.17 74.2276 369.481 80.1756C368.88 81.5432 371.088 82.2624 371.685 80.9038C374.508 74.468 374.795 67.2023 372.489 60.5636C370.182 53.9249 365.453 48.4041 359.249 45.1084C357.94 44.4141 356.642 46.3419 357.961 47.0414Z" fill="white"/>
<path d="M219.099 28.7958C212.118 7.91449 190.56 -3.69103 176.377 1.05641C162.195 5.80386 151.955 28.0536 158.936 48.9349C165.398 68.2632 184.978 79.4213 198.448 77.4301C198.351 77.5992 198.287 77.7852 198.26 77.9783L197.848 81.4157C197.817 81.6778 197.853 81.9435 197.953 82.1876C198.053 82.4318 198.214 82.6463 198.42 82.8108C198.626 82.9753 198.871 83.0843 199.131 83.1274C199.392 83.1706 199.658 83.1465 199.907 83.0574L206.845 80.568C207.094 80.4789 207.315 80.3278 207.489 80.129C207.662 79.9302 207.782 79.6904 207.837 79.4322C207.891 79.1741 207.879 78.9062 207.802 78.654C207.724 78.4018 207.583 78.1737 207.392 77.9913L204.891 75.599C204.802 75.5176 204.704 75.4469 204.599 75.3886C216.613 68.9101 225.575 48.1661 219.099 28.7958Z" fill="#F6F6F6"/>
<path d="M193.827 13.433C199.624 16.4269 204.052 21.5338 206.195 27.6996C208.339 33.8653 208.035 40.6192 205.346 46.5672C204.746 47.9348 206.954 48.654 207.55 47.2954C210.373 40.8596 210.66 33.5939 208.354 26.9552C206.047 20.3165 201.318 14.7957 195.114 11.5C193.805 10.8057 192.507 12.7335 193.827 13.433Z" fill="white"/>
<path d="M184.085 129.273C185.004 129.273 185.748 128.528 185.748 127.609C185.748 126.689 185.004 125.944 184.085 125.944C183.167 125.944 182.422 126.689 182.422 127.609C182.422 128.528 183.167 129.273 184.085 129.273Z" fill="#CCCCCC"/>
<path d="M180.541 196.032C182.356 196.032 183.827 194.56 183.827 192.745C183.827 190.929 182.356 189.457 180.541 189.457C178.727 189.457 177.256 190.929 177.256 192.745C177.256 194.56 178.727 196.032 180.541 196.032Z" fill="#CCCCCC"/>
<path d="M125.537 183.373C126.586 183.373 127.436 182.523 127.436 181.473C127.436 180.424 126.586 179.574 125.537 179.574C124.489 179.574 123.639 180.424 123.639 181.473C123.639 182.523 124.489 183.373 125.537 183.373Z" fill="#CCCCCC"/>
<path d="M154.378 152.267C155.514 152.267 156.434 151.346 156.434 150.21C156.434 149.074 155.514 148.153 154.378 148.153C153.243 148.153 152.322 149.074 152.322 150.21C152.322 151.346 153.243 152.267 154.378 152.267Z" fill="#CCCCCC"/>
<path d="M255.55 272.717C256.468 272.717 257.213 271.971 257.213 271.052C257.213 270.133 256.468 269.388 255.55 269.388C254.631 269.388 253.887 270.133 253.887 271.052C253.887 271.971 254.631 272.717 255.55 272.717Z" fill="#CCCCCC"/>
<path d="M201.08 238.496C202.895 238.496 204.366 237.024 204.366 235.208C204.366 233.393 202.895 231.921 201.08 231.921C199.266 231.921 197.795 233.393 197.795 235.208C197.795 237.024 199.266 238.496 201.08 238.496Z" fill="#CCCCCC"/>
<path d="M238.494 195.218C239.543 195.218 240.393 194.368 240.393 193.319C240.393 192.269 239.543 191.419 238.494 191.419C237.446 191.419 236.596 192.269 236.596 193.319C236.596 194.368 237.446 195.218 238.494 195.218Z" fill="#CCCCCC"/>
<path d="M250.98 236.049C252.115 236.049 253.036 235.128 253.036 233.991C253.036 232.855 252.115 231.934 250.98 231.934C249.844 231.934 248.924 232.855 248.924 233.991C248.924 235.128 249.844 236.049 250.98 236.049Z" fill="#CCCCCC"/>
<path d="M361.722 342.007C363.536 340.487 361.084 334.568 356.246 328.785C351.408 323.003 346.015 319.548 344.201 321.067C342.387 322.587 344.838 328.507 349.677 334.289C354.515 340.071 359.908 343.527 361.722 342.007Z" fill="#6D6D7A"/>
<path d="M323.931 354.105C339.005 354.105 351.224 341.878 351.224 326.795C351.224 311.712 339.005 299.485 323.931 299.485C308.858 299.485 296.639 311.712 296.639 326.795C296.639 341.878 308.858 354.105 323.931 354.105Z" fill="#6D6D7A"/>
<path d="M335.485 348.228H327.193V363.093H335.485V348.228Z" fill="#6D6D7A"/>
<path d="M318.901 348.228H310.609V363.093H318.901V348.228Z" fill="#6D6D7A"/>
<path d="M328.574 365.858C332.39 365.858 335.483 364.698 335.483 363.266C335.483 361.834 332.39 360.673 328.574 360.673C324.758 360.673 321.664 361.834 321.664 363.266C321.664 364.698 324.758 365.858 328.574 365.858Z" fill="#6D6D7A"/>
<path d="M311.992 365.513C315.808 365.513 318.901 364.352 318.901 362.92C318.901 361.488 315.808 360.327 311.992 360.327C308.176 360.327 305.082 361.488 305.082 362.92C305.082 364.352 308.176 365.513 311.992 365.513Z" fill="#6D6D7A"/>
<path d="M315.363 292.466C317.8 282.646 328.557 276.866 339.39 279.558C350.223 282.249 357.029 292.393 354.592 302.213C352.155 312.034 344.07 312.066 333.237 309.374C322.404 306.682 312.925 302.287 315.363 292.466Z" fill="#E6E6E6"/>
<path d="M305.521 319.974C306.535 317.835 301.837 313.481 295.027 310.25C288.217 307.018 281.875 306.132 280.861 308.271C279.847 310.41 284.546 314.764 291.355 317.996C298.165 321.228 304.507 322.114 305.521 319.974Z" fill="#6D6D7A"/>
<path d="M319.851 330.138C324.877 330.138 328.951 326.061 328.951 321.033C328.951 316.004 324.877 311.928 319.851 311.928C314.826 311.928 310.752 316.004 310.752 321.033C310.752 326.061 314.826 330.138 319.851 330.138Z" fill="white"/>
<path d="M316.111 320.804C317.786 320.804 319.144 319.445 319.144 317.769C319.144 316.093 317.786 314.734 316.111 314.734C314.436 314.734 313.078 316.093 313.078 317.769C313.078 319.445 314.436 320.804 316.111 320.804Z" fill="#3F3D56"/>
<path d="M325.561 340.002C325.703 340.787 325.69 341.591 325.522 342.37C325.354 343.15 325.034 343.888 324.581 344.544C324.128 345.199 323.55 345.759 322.88 346.191C322.211 346.623 321.463 346.919 320.679 347.061C319.895 347.204 319.091 347.191 318.312 347.023C317.534 346.855 316.796 346.535 316.141 346.081C315.486 345.627 314.926 345.049 314.494 344.379C314.063 343.709 313.767 342.961 313.624 342.177V342.177L313.622 342.165C313.025 338.866 315.574 337.699 318.871 337.102C322.168 336.504 324.964 336.704 325.561 340.002Z" fill="white"/>
<path d="M99.5454 307.702C102.236 300.658 102.626 294.262 100.416 293.417C98.2059 292.572 94.2329 297.597 91.5421 304.642C88.8513 311.686 88.4615 318.082 90.6716 318.927C92.8817 319.772 96.8546 314.747 99.5454 307.702Z" fill="#6D6D7A"/>
<path d="M70.3182 354.105C85.3916 354.105 97.611 341.878 97.611 326.795C97.611 311.712 85.3916 299.485 70.3182 299.485C55.2448 299.485 43.0254 311.712 43.0254 326.795C43.0254 341.878 55.2448 354.105 70.3182 354.105Z" fill="#6D6D7A"/>
<path d="M66.1723 348.228H57.8809V363.093H66.1723V348.228Z" fill="#6D6D7A"/>
<path d="M82.7544 348.228H74.4629V363.093H82.7544V348.228Z" fill="#6D6D7A"/>
<path d="M64.7904 365.858C68.6065 365.858 71.7 364.698 71.7 363.266C71.7 361.834 68.6065 360.673 64.7904 360.673C60.9744 360.673 57.8809 361.834 57.8809 363.266C57.8809 364.698 60.9744 365.858 64.7904 365.858Z" fill="#6D6D7A"/>
<path d="M81.3725 365.513C85.1885 365.513 88.2821 364.352 88.2821 362.92C88.2821 361.488 85.1885 360.327 81.3725 360.327C77.5564 360.327 74.4629 361.488 74.4629 362.92C74.4629 364.352 77.5564 365.513 81.3725 365.513Z" fill="#6D6D7A"/>
<path d="M71.0076 329.215C76.1593 329.215 80.3355 325.036 80.3355 319.881C80.3355 314.726 76.1593 310.547 71.0076 310.547C65.8559 310.547 61.6797 314.726 61.6797 319.881C61.6797 325.036 65.8559 329.215 71.0076 329.215Z" fill="white"/>
<path d="M71.0078 322.993C72.725 322.993 74.1171 321.6 74.1171 319.881C74.1171 318.163 72.725 316.77 71.0078 316.77C69.2905 316.77 67.8984 318.163 67.8984 319.881C67.8984 321.6 69.2905 322.993 71.0078 322.993Z" fill="#3F3D56"/>
<path d="M43.8429 301.398C41.6392 291.522 48.6838 281.543 59.5774 279.109C70.4711 276.675 81.0887 282.708 83.2925 292.584C85.4962 302.459 78.2766 306.101 67.3829 308.535C56.4892 310.969 46.0467 311.273 43.8429 301.398Z" fill="#E6E6E6"/>
<path d="M51.9058 319.975C52.9197 317.836 48.2214 313.482 41.4117 310.25C34.6021 307.019 28.2599 306.133 27.246 308.272C26.2321 310.411 30.9305 314.765 37.7401 317.997C44.5497 321.228 50.8919 322.114 51.9058 319.975Z" fill="#6D6D7A"/>
<path d="M56.9121 336.647C56.9121 339.32 63.7901 344.598 71.4222 344.598C79.0544 344.598 86.2103 337.073 86.2103 334.4C86.2103 331.727 79.0543 334.919 71.4222 334.919C63.7902 334.919 56.9121 333.974 56.9121 336.647Z" fill="white"/>
<path d="M200.687 328.106C215.761 328.106 227.98 315.879 227.98 300.796C227.98 285.713 215.761 273.486 200.687 273.486C185.614 273.486 173.395 285.713 173.395 300.796C173.395 315.879 185.614 328.106 200.687 328.106Z" fill="#6D6D7A"/>
<path d="M196.541 322.229H188.25V337.094H196.541V322.229Z" fill="#6D6D7A"/>
<path d="M213.123 322.229H204.832V337.094H213.123V322.229Z" fill="#6D6D7A"/>
<path d="M195.16 339.86C198.976 339.86 202.069 338.699 202.069 337.267C202.069 335.835 198.976 334.674 195.16 334.674C191.344 334.674 188.25 335.835 188.25 337.267C188.25 338.699 191.344 339.86 195.16 339.86Z" fill="#6D6D7A"/>
<path d="M211.742 339.514C215.558 339.514 218.651 338.353 218.651 336.921C218.651 335.489 215.558 334.329 211.742 334.329C207.926 334.329 204.832 335.489 204.832 336.921C204.832 338.353 207.926 339.514 211.742 339.514Z" fill="#6D6D7A"/>
<path d="M174.212 275.399C172.008 265.523 179.053 255.544 189.947 253.11C200.84 250.676 211.458 256.709 213.662 266.585C215.865 276.46 208.646 280.102 197.752 282.536C186.858 284.97 176.416 285.274 174.212 275.399Z" fill="#9892FF"/>
<path d="M230.097 288.862C236.008 282.943 239.294 276.64 237.437 274.783C235.58 272.927 229.283 276.22 223.372 282.139C217.462 288.058 214.175 294.361 216.032 296.218C217.889 298.075 224.186 294.781 230.097 288.862Z" fill="#6D6D7A"/>
<path d="M178.687 298.12C180.544 296.263 177.258 289.96 171.347 284.041C165.436 278.122 159.139 274.829 157.282 276.685C155.425 278.542 158.712 284.846 164.622 290.765C170.533 296.684 176.83 299.977 178.687 298.12Z" fill="#6D6D7A"/>
<path d="M366.614 127.471C365.708 99.4686 346.541 77.3653 323.803 78.1019C273.198 79.6023 271.962 172.46 320.82 179.13L319.785 187.358L334.875 186.869L333.311 178.725C352.965 174.378 367.435 152.859 366.614 127.471Z" fill="#FF93A9"/>
<path d="M298.638 142.997L292.937 143.182C290.703 132.551 290.349 121.611 291.891 110.859L297.592 110.674C295.487 121.93 295.835 132.704 298.638 142.997Z" fill="white"/>
<path d="M335.613 178.597L318.512 179.151L318.635 182.954L335.736 182.4L335.613 178.597Z" fill="#3F3D56"/>
<path d="M285.941 324.208L284.219 323.401L326.559 179.728L328.281 180.535L285.941 324.208Z" fill="#3F3D56"/>
<path d="M401.658 151.151C411.998 125.114 403.241 97.1922 382.1 88.7857C335.103 69.949 296.927 154.594 339.063 180.224L334.832 187.355L348.862 192.934L350.677 184.842C370.431 188.707 392.283 174.756 401.658 151.151Z" fill="#9892FF"/>
<path d="M333.138 138.235L327.838 136.127C330.03 125.488 334.069 115.316 339.773 106.073L345.074 108.181C338.653 117.66 334.675 127.678 333.138 138.235Z" fill="white"/>
<path d="M336.937 179.322L335.533 182.858L351.434 189.181L352.838 185.645L336.937 179.322Z" fill="#3F3D56"/>
<path d="M285.607 320.426L283.955 319.485L343.068 184.501L344.72 185.442L285.607 320.426Z" fill="#3F3D56"/>
<path d="M80.3513 129.28C69.1641 103.597 43.1889 90.149 22.3339 99.2441C-24.1319 119.357 9.02511 206.094 56.8858 194.219L58.9644 202.247L72.8044 196.211L68.3424 189.222C84.9984 177.914 90.4937 152.566 80.3513 129.28Z" fill="#9892FF"/>
<path d="M22.9269 168.851L17.6984 171.131C11.6947 162.08 7.32412 152.046 4.78516 141.484L10.0137 139.204C12.2157 150.441 16.5201 160.324 22.9269 168.851Z" fill="white"/>
<path d="M70.4355 188.252L54.75 195.092L56.2692 198.58L71.9547 191.739L70.4355 188.252Z" fill="#3F3D56"/>
<path d="M106.727 324.576C106.482 324.636 106.223 324.597 106.007 324.467C105.792 324.337 105.636 324.126 105.575 323.881L64.252 192.862L66.0971 192.404L107.421 323.423C107.451 323.545 107.457 323.671 107.438 323.794C107.419 323.918 107.377 324.036 107.312 324.143C107.248 324.25 107.163 324.344 107.062 324.418C106.962 324.492 106.848 324.546 106.727 324.576Z" fill="#3F3D56"/>
<path d="M117.771 366H18.2763C18.1082 366 17.947 365.933 17.8282 365.814C17.7094 365.695 17.6426 365.534 17.6426 365.366C17.6426 365.198 17.7094 365.037 17.8282 364.918C17.947 364.799 18.1082 364.732 18.2763 364.732H117.771C117.939 364.732 118.1 364.799 118.219 364.918C118.338 365.037 118.405 365.198 118.405 365.366C118.405 365.534 118.338 365.695 118.219 365.814C118.1 365.933 117.939 366 117.771 366Z" fill="#CCCCCC"/>
<path d="M370.626 366H271.132C270.964 366 270.802 365.933 270.684 365.814C270.565 365.695 270.498 365.534 270.498 365.366C270.498 365.198 270.565 365.037 270.684 364.918C270.802 364.799 270.964 364.732 271.132 364.732H370.626C370.795 364.732 370.956 364.799 371.075 364.918C371.193 365.037 371.26 365.198 371.26 365.366C371.26 365.534 371.193 365.695 371.075 365.814C370.956 365.933 370.795 366 370.626 366Z" fill="#CCCCCC"/>
<path d="M252.121 340.001H152.626C152.458 340.001 152.297 339.934 152.178 339.815C152.059 339.696 151.992 339.535 151.992 339.367C151.992 339.199 152.059 339.038 152.178 338.919C152.297 338.8 152.458 338.733 152.626 338.733H252.121C252.289 338.733 252.45 338.8 252.569 338.919C252.688 339.038 252.754 339.199 252.754 339.367C252.754 339.535 252.688 339.696 252.569 339.815C252.45 339.934 252.289 340.001 252.121 340.001Z" fill="#CCCCCC"/>
<path d="M199.539 306.26C204.691 306.26 208.867 302.081 208.867 296.926C208.867 291.771 204.691 287.592 199.539 287.592C194.387 287.592 190.211 291.771 190.211 296.926C190.211 302.081 194.387 306.26 199.539 306.26Z" fill="white"/>
<path d="M199.539 300.037C201.256 300.037 202.648 298.644 202.648 296.926C202.648 295.208 201.256 293.815 199.539 293.815C197.822 293.815 196.43 295.208 196.43 296.926C196.43 298.644 197.822 300.037 199.539 300.037Z" fill="#3F3D56"/>
<path d="M206.944 314.188C207.232 315.772 206.879 317.406 205.964 318.73C205.048 320.053 203.645 320.959 202.062 321.247C200.479 321.536 198.846 321.183 197.523 320.267C196.2 319.351 195.295 317.946 195.007 316.363L195.005 316.351C194.408 313.052 196.957 311.885 200.254 311.288C203.551 310.69 206.347 310.89 206.944 314.188Z" fill="white"/>
</g>
<defs>
<clipPath id="clip0_580:6072">
<rect width="406" height="366" fill="white"/>
</clipPath>
</defs>
</svg>
