<svg xmlns="http://www.w3.org/2000/svg" xmlns:xlink="http://www.w3.org/1999/xlink" aria-hidden="true" role="img" width="30" height="30" preserveAspectRatio="xMidYMid meet" viewBox="0 0 48 48"><g fill="none"><path fill-rule="evenodd" clip-rule="evenodd" d="M36 16a3 3 0 1 1 6 0v20.303l-3 4.5l-3-4.5V16zm3-1a1 1 0 0 0-1 1v19.697l1 1.5l1-1.5V16a1 1 0 0 0-1-1z" fill="currentColor"/><path fill-rule="evenodd" clip-rule="evenodd" d="M41 20h-4v-2h4v2z" fill="currentColor"/><path fill-rule="evenodd" clip-rule="evenodd" d="M10 8a2 2 0 0 0-2 2v28a2 2 0 0 0 2 2h20a2 2 0 0 0 2-2V10a2 2 0 0 0-2-2H10zm-4 2a4 4 0 0 1 4-4h20a4 4 0 0 1 4 4v28a4 4 0 0 1-4 4H10a4 4 0 0 1-4-4V10z" fill="currentColor"/><path fill-rule="evenodd" clip-rule="evenodd" d="M20 15a1 1 0 0 1 1-1h8a1 1 0 1 1 0 2h-8a1 1 0 0 1-1-1z" fill="currentColor"/><path fill-rule="evenodd" clip-rule="evenodd" d="M20 19a1 1 0 0 1 1-1h8a1 1 0 1 1 0 2h-8a1 1 0 0 1-1-1z" fill="currentColor"/><path fill-rule="evenodd" clip-rule="evenodd" d="M20 28a1 1 0 0 1 1-1h8a1 1 0 1 1 0 2h-8a1 1 0 0 1-1-1z" fill="currentColor"/><path fill-rule="evenodd" clip-rule="evenodd" d="M20 32a1 1 0 0 1 1-1h8a1 1 0 1 1 0 2h-8a1 1 0 0 1-1-1z" fill="currentColor"/><path fill-rule="evenodd" clip-rule="evenodd" d="M12 28v3h3v-3h-3zm-1-2h5a1 1 0 0 1 1 1v5a1 1 0 0 1-1 1h-5a1 1 0 0 1-1-1v-5a1 1 0 0 1 1-1z" fill="currentColor"/><path fill-rule="evenodd" clip-rule="evenodd" d="M17.707 14.293a1 1 0 0 1 0 1.414L13 20.414l-2.707-2.707a1 1 0 1 1 1.414-1.414L13 17.586l3.293-3.293a1 1 0 0 1 1.414 0z" fill="currentColor"/></g></svg>