<svg width="685" height="257" viewBox="0 0 685 257" fill="none" xmlns="http://www.w3.org/2000/svg">
<path d="M19.6561 226.856C22.0624 227.703 24.646 227.915 27.158 227.472C29.6699 227.029 32.0256 225.946 33.9981 224.327C39.0214 220.107 40.5967 213.157 41.8778 206.719L45.6682 187.678L37.7327 193.147C32.0256 197.08 26.1903 201.139 22.2391 206.836C18.288 212.532 16.5642 220.309 19.7379 226.473" fill="#EEEEEE"/>
<path d="M20.8818 251.234C19.883 243.951 18.8553 236.574 19.5576 229.212C20.18 222.675 22.1728 216.29 26.2299 211.053C28.3834 208.279 31.0039 205.903 33.9734 204.03C34.7476 203.541 35.4602 204.769 34.6894 205.256C29.5512 208.506 25.5769 213.305 23.3395 218.962C20.8685 225.252 20.4718 232.109 20.8974 238.791C21.1546 242.832 21.7013 246.847 22.2504 250.856C22.2937 251.038 22.2667 251.229 22.1747 251.391C22.0826 251.553 21.9326 251.674 21.7547 251.73C21.5734 251.778 21.38 251.754 21.2167 251.661C21.0533 251.568 20.9332 251.415 20.8822 251.234L20.8818 251.234Z" fill="#F2F2F2"/>
<path d="M28.0703 239.548C29.1022 241.118 30.5207 242.396 32.1893 243.258C33.8578 244.121 35.7201 244.538 37.5967 244.471C42.4204 244.242 46.4402 240.873 50.0585 237.675L60.7628 228.215L53.6786 227.876C48.5839 227.631 43.3577 227.402 38.5052 228.977C33.6526 230.551 29.1774 234.334 28.2903 239.361" fill="#EEEEEE"/>
<path d="M18.0582 255.421C22.8667 246.905 28.4438 237.441 38.41 234.416C41.1808 233.578 44.0862 233.277 46.9697 233.531C47.8786 233.61 47.6516 235.012 46.7446 234.934C41.911 234.532 37.0868 235.809 33.084 238.551C29.3212 241.284 26.131 244.729 23.6948 248.692C22.1398 251.062 20.7471 253.533 19.3544 256C18.9094 256.788 17.6079 256.219 18.0582 255.421Z" fill="#F2F2F2"/>
<path d="M459.504 215.724C462.818 216.89 466.376 217.182 469.835 216.572C473.294 215.962 476.538 214.471 479.254 212.242C486.172 206.431 488.341 196.859 490.105 187.995L495.325 161.773L484.397 169.305C476.538 174.72 468.503 180.31 463.062 188.155C457.62 196 455.247 206.709 459.617 215.197" fill="#EEEEEE"/>
<path d="M461.193 249.295C459.817 239.266 458.402 229.107 459.369 218.97C460.227 209.967 462.971 201.175 468.558 193.963C471.523 190.143 475.132 186.871 479.221 184.292C480.287 183.618 481.268 185.309 480.207 185.98C473.131 190.456 467.658 197.064 464.577 204.854C461.175 213.516 460.628 222.959 461.214 232.16C461.569 237.725 462.322 243.253 463.078 248.775C463.137 249.024 463.1 249.287 462.973 249.511C462.847 249.734 462.64 249.901 462.395 249.977C462.145 250.045 461.879 250.011 461.654 249.883C461.429 249.755 461.264 249.543 461.194 249.294L461.193 249.295Z" fill="#F2F2F2"/>
<path d="M471.092 233.202C472.513 235.365 474.466 237.124 476.764 238.311C479.061 239.499 481.626 240.074 484.21 239.981C490.853 239.666 496.388 235.027 501.371 230.622L516.111 217.596L506.356 217.128C499.34 216.792 492.143 216.477 485.461 218.645C478.779 220.812 472.616 226.022 471.395 232.945" fill="#EEEEEE"/>
<path d="M457.304 255.061C463.926 243.334 471.606 230.301 485.33 226.135C489.146 224.981 493.147 224.567 497.117 224.917C498.369 225.025 498.056 226.956 496.807 226.848C490.151 226.295 483.508 228.054 477.996 231.829C472.692 235.443 468.561 240.467 465.066 245.794C462.925 249.058 461.007 252.46 459.089 255.857C458.477 256.943 456.684 256.159 457.304 255.061Z" fill="#F2F2F2"/>
<path d="M397.443 39.2738C396.744 38.9694 396.182 38.4186 395.864 37.7263C395.545 37.034 395.491 36.2485 395.713 35.5193C395.749 35.4076 395.772 35.2919 395.781 35.1748V35.1748C395.801 34.8407 395.713 34.509 395.531 34.2287C395.348 33.9485 395.08 33.7346 394.766 33.6187C394.452 33.5029 394.11 33.4913 393.789 33.5856C393.468 33.6799 393.186 33.8752 392.985 34.1424V34.1424C392.915 34.2372 392.858 34.3399 392.813 34.4483C392.508 35.1472 391.958 35.7098 391.266 36.029C390.575 36.3482 389.79 36.4016 389.061 36.1792C388.95 36.1432 388.834 36.1206 388.717 36.1117V36.1117C388.383 36.0913 388.052 36.1792 387.772 36.3621C387.492 36.5451 387.278 36.8134 387.163 37.1274C387.047 37.4414 387.035 37.7844 387.129 38.1055C387.224 38.4266 387.419 38.7088 387.686 38.9103C387.781 38.9796 387.883 39.0375 387.991 39.0827C388.69 39.3871 389.252 39.9379 389.571 40.6302C389.89 41.3224 389.943 42.1079 389.721 42.8371C389.685 42.9489 389.662 43.0645 389.653 43.1816V43.1816C389.633 43.5157 389.721 43.8474 389.903 44.1277C390.086 44.408 390.354 44.6219 390.668 44.7377C390.982 44.8535 391.324 44.8652 391.645 44.7708C391.966 44.6765 392.248 44.4812 392.449 44.214V44.214C392.519 44.1192 392.576 44.0165 392.622 43.9081C392.926 43.2092 393.476 42.6466 394.168 42.3274C394.859 42.0083 395.644 41.9548 396.373 42.1772C396.484 42.2132 396.6 42.2358 396.717 42.2447V42.2447C397.051 42.2651 397.382 42.1773 397.662 41.9943C397.942 41.8114 398.156 41.543 398.272 41.229C398.387 40.915 398.399 40.5721 398.305 40.2509C398.21 39.9298 398.015 39.6476 397.748 39.4461V39.4461C397.654 39.3768 397.551 39.319 397.443 39.2738Z" fill="#CBCBCB"/>
<path d="M456.568 177.073C455.87 176.769 455.307 176.218 454.989 175.526C454.67 174.833 454.616 174.048 454.838 173.319C454.874 173.207 454.897 173.091 454.906 172.974V172.974C454.926 172.64 454.838 172.308 454.656 172.028C454.473 171.748 454.205 171.534 453.891 171.418C453.577 171.302 453.235 171.291 452.914 171.385C452.593 171.479 452.311 171.674 452.11 171.942V171.942C452.041 172.037 451.983 172.139 451.938 172.248C451.633 172.947 451.083 173.509 450.391 173.828C449.7 174.147 448.915 174.201 448.186 173.979C448.075 173.943 447.959 173.92 447.842 173.911V173.911C447.508 173.891 447.177 173.978 446.897 174.161C446.617 174.344 446.403 174.613 446.288 174.927C446.172 175.241 446.16 175.584 446.254 175.905C446.349 176.226 446.544 176.508 446.811 176.71C446.906 176.779 447.008 176.837 447.116 176.882C447.815 177.186 448.377 177.737 448.696 178.429C449.015 179.122 449.068 179.907 448.846 180.636C448.81 180.748 448.787 180.864 448.778 180.981C448.758 181.315 448.846 181.647 449.028 181.927C449.211 182.207 449.479 182.421 449.793 182.537C450.107 182.653 450.45 182.664 450.77 182.57C451.091 182.476 451.373 182.281 451.574 182.013C451.644 181.918 451.701 181.816 451.747 181.707C452.051 181.009 452.601 180.446 453.293 180.127C453.984 179.808 454.769 179.754 455.498 179.976C455.609 180.012 455.725 180.035 455.842 180.044V180.044C456.176 180.064 456.507 179.977 456.787 179.794C457.067 179.611 457.281 179.342 457.397 179.028C457.512 178.714 457.524 178.371 457.43 178.05C457.335 177.729 457.14 177.447 456.873 177.245V177.245C456.779 177.176 456.676 177.118 456.568 177.073V177.073Z" fill="#F1F1F1"/>
<path d="M146.585 96.7606C145.887 96.4562 145.325 95.9054 145.006 95.2131C144.687 94.5208 144.634 93.7353 144.856 93.0062C144.892 92.8944 144.915 92.7787 144.923 92.6616V92.6616C144.944 92.3276 144.856 91.9958 144.673 91.7155C144.49 91.4353 144.222 91.2214 143.909 91.1055C143.595 90.9897 143.252 90.9781 142.931 91.0724C142.611 91.1667 142.329 91.362 142.127 91.6292V91.6292C142.058 91.7241 142 91.8267 141.955 91.9351C141.651 92.634 141.101 93.1966 140.409 93.5158C139.717 93.835 138.933 93.8884 138.204 93.666C138.092 93.63 137.977 93.6074 137.86 93.5985V93.5985C137.526 93.5782 137.195 93.666 136.915 93.8489C136.635 94.0319 136.421 94.3002 136.305 94.6142C136.189 94.9282 136.178 95.2712 136.272 95.5923C136.366 95.9134 136.561 96.1956 136.828 96.3971C136.923 96.4664 137.026 96.5243 137.134 96.5695C137.832 96.8739 138.394 97.4247 138.713 98.117C139.032 98.8093 139.086 99.5947 138.863 100.324C138.827 100.436 138.805 100.551 138.796 100.668V100.668C138.776 101.003 138.863 101.334 139.046 101.615C139.229 101.895 139.497 102.109 139.811 102.225C140.124 102.34 140.467 102.352 140.788 102.258C141.109 102.163 141.391 101.968 141.592 101.701V101.701C141.661 101.606 141.719 101.503 141.764 101.395C142.068 100.696 142.619 100.133 143.31 99.8143C144.002 99.4951 144.787 99.4416 145.515 99.664C145.627 99.7 145.742 99.7227 145.859 99.7315V99.7315C146.193 99.7519 146.525 99.6641 146.805 99.4812C147.085 99.2982 147.298 99.0299 147.414 98.7159C147.53 98.4018 147.542 98.0589 147.447 97.7377C147.353 97.4166 147.158 97.1344 146.891 96.9329V96.9329C146.796 96.8636 146.694 96.8058 146.585 96.7606V96.7606Z" fill="#F1F1F1"/>
<path d="M275.904 47.342C278.703 47.342 280.972 45.071 280.972 42.2696C280.972 39.4682 278.703 37.1973 275.904 37.1973C273.105 37.1973 270.836 39.4682 270.836 42.2696C270.836 45.071 273.105 47.342 275.904 47.342Z" fill="#F1F1F1"/>
<path d="M546.187 33.8156C548.986 33.8156 551.255 31.5447 551.255 28.7433C551.255 25.9419 548.986 23.6709 546.187 23.6709C543.388 23.6709 541.119 25.9419 541.119 28.7433C541.119 31.5447 543.388 33.8156 546.187 33.8156Z" fill="#9892FF"/>
<path d="M152.587 10.1447C155.386 10.1447 157.655 7.87376 157.655 5.07237C157.655 2.27098 155.386 0 152.587 0C149.788 0 147.52 2.27098 147.52 5.07237C147.52 7.87376 149.788 10.1447 152.587 10.1447Z" fill="#CBCBCB"/>
<path d="M133.097 240.676C153.187 240.676 169.473 224.375 169.473 204.267C169.473 184.159 153.187 167.858 133.097 167.858C113.007 167.858 96.7207 184.159 96.7207 204.267C96.7207 224.375 113.007 240.676 133.097 240.676Z" fill="#6D6D7A"/>
<path d="M127.572 232.841H116.521V252.659H127.572V232.841Z" fill="#6D6D7A"/>
<path d="M149.674 232.841H138.623V252.659H149.674V232.841Z" fill="#6D6D7A"/>
<path d="M125.731 256.346C130.817 256.346 134.94 254.798 134.94 252.889C134.94 250.98 130.817 249.433 125.731 249.433C120.645 249.433 116.521 250.98 116.521 252.889C116.521 254.798 120.645 256.346 125.731 256.346Z" fill="#6D6D7A"/>
<path d="M147.832 255.885C152.918 255.885 157.041 254.337 157.041 252.428C157.041 250.519 152.918 248.972 147.832 248.972C142.746 248.972 138.623 250.519 138.623 252.428C138.623 254.337 142.746 255.885 147.832 255.885Z" fill="#6D6D7A"/>
<path d="M172.297 188.357C180.175 180.466 184.555 172.062 182.08 169.587C179.605 167.112 171.212 171.502 163.335 179.393C155.457 187.284 151.077 195.688 153.552 198.163C156.027 200.638 164.419 196.248 172.297 188.357Z" fill="#6D6D7A"/>
<path d="M103.777 200.7C106.252 198.224 101.873 189.821 93.9946 181.93C86.1167 174.038 77.724 169.648 75.249 172.123C72.774 174.599 77.1539 183.002 85.0318 190.894C92.9097 198.785 101.302 203.175 103.777 200.7Z" fill="#6D6D7A"/>
<path d="M131.567 211.551C138.433 211.551 144 205.98 144 199.108C144 192.235 138.433 186.664 131.567 186.664C124.701 186.664 119.135 192.235 119.135 199.108C119.135 205.98 124.701 211.551 131.567 211.551Z" fill="white"/>
<path d="M131.568 203.255C133.857 203.255 135.712 201.398 135.712 199.107C135.712 196.817 133.857 194.959 131.568 194.959C129.279 194.959 127.424 196.817 127.424 199.107C127.424 201.398 129.279 203.255 131.568 203.255Z" fill="#3F3D56"/>
<path d="M141.436 222.121C141.82 224.233 141.35 226.411 140.13 228.176C138.91 229.94 137.039 231.148 134.93 231.532C132.82 231.917 130.644 231.447 128.881 230.225C127.118 229.004 125.911 227.132 125.527 225.02V225.02L125.524 225.004C124.729 220.607 128.126 219.05 132.52 218.254C136.914 217.458 140.641 217.723 141.436 222.121Z" fill="white"/>
<path d="M168.766 242.479C167.947 242.48 167.162 242.806 166.583 243.385C166.004 243.965 165.679 244.751 165.678 245.57V252.027C165.679 252.846 166.004 253.632 166.583 254.211C167.162 254.791 167.947 255.117 168.766 255.118H218.456C219.275 255.117 220.06 254.791 220.638 254.211C221.217 253.632 221.543 252.846 221.544 252.027V245.57C221.543 244.751 221.217 243.965 220.638 243.385C220.06 242.806 219.275 242.48 218.456 242.479H168.766Z" fill="#E5E5E5"/>
<path d="M197.342 238.179C197.034 238.001 196.669 237.953 196.326 238.045C195.983 238.137 195.69 238.362 195.512 238.67L193.666 241.871L191.856 238.291C191.696 237.974 191.416 237.734 191.079 237.623C190.741 237.512 190.374 237.54 190.057 237.701C189.74 237.861 189.5 238.141 189.389 238.479C189.278 238.817 189.306 239.184 189.467 239.502L190.875 242.287H190.359V255.309H197.246V242.287H196.519L197.832 240.01C198.01 239.702 198.058 239.336 197.966 238.993C197.874 238.65 197.65 238.357 197.342 238.179V238.179Z" fill="#9892FF"/>
<path d="M132.16 180.386C125.697 180.38 119.272 179.397 113.101 177.472C112.672 177.334 112.298 177.063 112.033 176.699C111.767 176.335 111.623 175.896 111.621 175.445V160.625C111.622 160.065 111.844 159.528 112.24 159.131C112.636 158.735 113.173 158.512 113.733 158.512H150.897C151.456 158.512 151.993 158.735 152.389 159.131C152.785 159.528 153.008 160.065 153.008 160.625V175.437C153.008 175.891 152.863 176.334 152.592 176.699C152.321 177.065 151.941 177.333 151.506 177.465C145.235 179.383 138.717 180.367 132.16 180.386V180.386Z" fill="#9892FF"/>
<path opacity="0.2" d="M152.587 160.625V163.102L132.477 170.161C132.101 170.291 131.691 170.285 131.319 170.144L112.045 162.899V160.625C112.046 160.177 112.225 159.748 112.541 159.431C112.858 159.114 113.287 158.935 113.734 158.934H150.898C151.346 158.935 151.775 159.114 152.091 159.431C152.408 159.748 152.586 160.177 152.587 160.625Z" fill="black"/>
<path d="M131.912 167.296C131.659 167.296 131.408 167.251 131.17 167.162L102.367 156.337C101.96 156.184 101.61 155.909 101.365 155.549C101.12 155.189 100.992 154.763 100.998 154.327C101.005 153.892 101.145 153.469 101.401 153.117C101.656 152.764 102.014 152.5 102.426 152.359L129.527 143.079C129.964 142.931 130.439 142.929 130.878 143.073L161.124 153.165C161.542 153.304 161.906 153.571 162.165 153.927C162.424 154.284 162.565 154.713 162.568 155.154C162.571 155.594 162.437 156.025 162.184 156.386C161.93 156.746 161.571 157.019 161.155 157.164L132.611 167.178C132.386 167.256 132.15 167.296 131.912 167.296V167.296Z" fill="#9892FF"/>
<path d="M105.71 166.543H104.865V154.285H130.627V155.13H105.71V166.543Z" fill="#3F3D56"/>
<path d="M105.287 169.079C106.22 169.079 106.976 168.322 106.976 167.388C106.976 166.454 106.22 165.697 105.287 165.697C104.354 165.697 103.598 166.454 103.598 167.388C103.598 168.322 104.354 169.079 105.287 169.079Z" fill="#3F3D56"/>
<path d="M343.411 240.676C363.501 240.676 379.788 224.375 379.788 204.267C379.788 184.159 363.501 167.858 343.411 167.858C323.321 167.858 307.035 184.159 307.035 204.267C307.035 224.375 323.321 240.676 343.411 240.676Z" fill="#6D6D7A"/>
<path d="M337.887 232.841H326.836V252.659H337.887V232.841Z" fill="#6D6D7A"/>
<path d="M359.989 232.841H348.938V252.659H359.989V232.841Z" fill="#6D6D7A"/>
<path d="M336.045 256.346C341.131 256.346 345.254 254.798 345.254 252.889C345.254 250.98 341.131 249.433 336.045 249.433C330.959 249.433 326.836 250.98 326.836 252.889C326.836 254.798 330.959 256.346 336.045 256.346Z" fill="#6D6D7A"/>
<path d="M358.147 255.885C363.233 255.885 367.356 254.337 367.356 252.428C367.356 250.519 363.233 248.972 358.147 248.972C353.061 248.972 348.938 250.519 348.938 252.428C348.938 254.337 353.061 255.885 358.147 255.885Z" fill="#6D6D7A"/>
<path d="M382.612 188.357C390.49 180.466 394.87 172.062 392.395 169.587C389.92 167.112 381.527 171.502 373.649 179.393C365.771 187.284 361.391 195.688 363.866 198.163C366.341 200.638 374.734 196.248 382.612 188.357Z" fill="#6D6D7A"/>
<path d="M310.945 222.153C317.302 212.99 320.125 203.942 317.251 201.945C314.377 199.948 306.894 205.757 300.537 214.92C294.181 224.083 291.357 233.13 294.231 235.127C297.105 237.125 304.588 231.316 310.945 222.153Z" fill="#6D6D7A"/>
<path d="M341.882 211.551C348.748 211.551 354.314 205.98 354.314 199.108C354.314 192.235 348.748 186.664 341.882 186.664C335.015 186.664 329.449 192.235 329.449 199.108C329.449 205.98 335.015 211.551 341.882 211.551Z" fill="white"/>
<path d="M346.105 199.029C348.394 199.029 350.249 197.172 350.249 194.881C350.249 192.59 348.394 190.733 346.105 190.733C343.816 190.733 341.961 192.59 341.961 194.881C341.961 197.172 343.816 199.029 346.105 199.029Z" fill="#3F3D56"/>
<path d="M356.787 222.121C358.006 226.518 353.564 230.732 346.864 231.532C340.165 232.333 333.745 229.417 332.525 225.02L332.521 225.004C331.308 220.607 336.489 219.05 343.189 218.254C349.89 217.458 355.574 217.723 356.787 222.121Z" fill="white"/>
<path d="M330.685 182.839C324.686 185.246 318.358 186.734 311.915 187.252C311.466 187.283 311.018 187.172 310.636 186.933C310.254 186.695 309.956 186.342 309.787 185.924L304.263 172.174C304.055 171.654 304.061 171.072 304.281 170.557C304.5 170.041 304.915 169.634 305.434 169.424L339.915 155.547C340.435 155.339 341.016 155.345 341.531 155.565C342.046 155.785 342.453 156.2 342.662 156.72L348.183 170.462C348.353 170.884 348.382 171.349 348.267 171.789C348.152 172.229 347.899 172.62 347.545 172.905C342.442 177.025 336.761 180.373 330.685 182.839V182.839Z" fill="#9892FF"/>
<path opacity="0.2" d="M342.269 156.877L343.193 159.176L327.165 173.234C326.864 173.495 326.482 173.643 326.085 173.651L305.501 174.126L304.654 172.016C304.488 171.6 304.493 171.135 304.669 170.723C304.845 170.311 305.176 169.985 305.591 169.816L340.072 155.939C340.488 155.774 340.952 155.779 341.364 155.955C341.776 156.13 342.101 156.462 342.269 156.877V156.877Z" fill="black"/>
<path d="M325.575 170.787C325.34 170.882 325.09 170.933 324.837 170.94L294.078 171.651C293.643 171.661 293.216 171.537 292.855 171.294C292.493 171.052 292.215 170.704 292.059 170.298C291.903 169.891 291.876 169.446 291.981 169.024C292.087 168.602 292.321 168.222 292.65 167.938L314.335 149.209C314.686 148.908 315.125 148.729 315.587 148.699L347.411 146.768C347.85 146.741 348.287 146.853 348.661 147.087C349.034 147.321 349.324 147.666 349.492 148.074C349.659 148.482 349.695 148.932 349.594 149.361C349.494 149.79 349.261 150.177 348.93 150.467L326.179 170.416C326 170.573 325.796 170.698 325.575 170.787V170.787Z" fill="#9892FF"/>
<path d="M300.983 179.872L300.199 180.187L295.631 168.814L319.532 159.194L319.847 159.979L296.729 169.283L300.983 179.872Z" fill="#3F3D56"/>
<path d="M300.906 182.505C301.839 182.505 302.595 181.748 302.595 180.814C302.595 179.881 301.839 179.124 300.906 179.124C299.973 179.124 299.217 179.881 299.217 180.814C299.217 181.748 299.973 182.505 300.906 182.505Z" fill="#3F3D56"/>
<path d="M481.897 118.244C476.414 114.819 471.478 110.586 467.257 105.688C466.966 105.343 466.791 104.916 466.758 104.466C466.724 104.017 466.834 103.568 467.071 103.184L474.897 90.6034C475.193 90.1281 475.666 89.7899 476.211 89.6629C476.756 89.536 477.33 89.6307 477.805 89.9263L509.354 109.587C509.829 109.883 510.167 110.357 510.294 110.902C510.42 111.448 510.326 112.022 510.03 112.498L502.209 125.071C501.969 125.458 501.611 125.756 501.189 125.923C500.766 126.09 500.301 126.117 499.862 125.999C493.527 124.309 487.473 121.696 481.897 118.244V118.244Z" fill="#9892FF"/>
<path opacity="0.2" d="M509.67 112.275L508.362 114.377L487.563 109.731C487.175 109.642 486.83 109.421 486.589 109.104L474.053 92.7575L475.254 90.827C475.491 90.4474 475.869 90.1773 476.305 90.0758C476.741 89.9743 477.2 90.0497 477.581 90.2854L509.129 109.946C509.509 110.184 509.778 110.562 509.88 110.999C509.981 111.435 509.906 111.894 509.67 112.275V112.275Z" fill="black"/>
<path d="M488.598 107.002C488.382 106.868 488.193 106.696 488.038 106.495L469.304 82.0685C469.039 81.7231 468.887 81.3043 468.869 80.8693C468.851 80.4342 468.968 80.0042 469.203 79.638C469.438 79.2719 469.781 78.9874 470.184 78.8235C470.587 78.6596 471.031 78.6242 471.455 78.7223L499.361 85.1815C499.811 85.2871 500.214 85.5363 500.511 85.8914L520.858 110.459C521.139 110.798 521.307 111.217 521.339 111.657C521.37 112.097 521.263 112.535 521.033 112.911C520.803 113.287 520.462 113.582 520.056 113.754C519.651 113.926 519.202 113.967 518.772 113.87L489.253 107.271C489.021 107.219 488.799 107.128 488.598 107.002Z" fill="#9892FF"/>
<path d="M466.752 92.4997L466.035 92.0525L472.508 81.6465L494.378 95.2751L493.931 95.992L472.779 82.8106L466.752 92.4997Z" fill="#3F3D56"/>
<path d="M465.947 94.6843C466.88 94.6843 467.636 93.9273 467.636 92.9935C467.636 92.0597 466.88 91.3027 465.947 91.3027C465.014 91.3027 464.258 92.0597 464.258 92.9935C464.258 93.9273 465.014 94.6843 465.947 94.6843Z" fill="#3F3D56"/>
<path d="M569.9 199.252C589.99 199.252 606.276 182.951 606.276 162.843C606.276 142.735 589.99 126.434 569.9 126.434C549.81 126.434 533.523 142.735 533.523 162.843C533.523 182.951 549.81 199.252 569.9 199.252Z" fill="#6D6D7A"/>
<path d="M595.117 181.721L585.688 187.489L596.013 204.399L605.442 198.631L595.117 181.721Z" fill="#6D6D7A"/>
<path d="M576.26 193.257L566.83 199.025L577.155 215.935L586.585 210.167L576.26 193.257Z" fill="#6D6D7A"/>
<path d="M599.505 206.583C603.844 203.929 606.556 200.456 605.562 198.827C604.567 197.198 600.243 198.03 595.903 200.685C591.563 203.339 588.851 206.812 589.846 208.441C590.84 210.069 595.165 209.238 599.505 206.583Z" fill="#6D6D7A"/>
<path d="M580.407 217.726C584.747 215.072 587.459 211.599 586.464 209.97C585.469 208.341 581.145 209.173 576.805 211.828C572.465 214.482 569.754 217.955 570.748 219.584C571.743 221.213 576.067 220.381 580.407 217.726Z" fill="#6D6D7A"/>
<path d="M549.445 156.739C551.92 154.264 547.541 145.86 539.663 137.969C531.785 130.078 523.392 125.688 520.917 128.163C518.442 130.638 522.822 139.042 530.7 146.933C538.578 154.824 546.97 159.214 549.445 156.739Z" fill="#6D6D7A"/>
<path d="M619.081 193.703C621.955 191.706 619.132 182.659 612.775 173.496C606.418 164.333 598.935 158.524 596.061 160.521C593.187 162.519 596.011 171.566 602.367 180.729C608.724 189.892 616.207 195.701 619.081 193.703Z" fill="#6D6D7A"/>
<path d="M558.761 165.055C565.627 165.055 571.193 159.483 571.193 152.611C571.193 145.739 565.627 140.167 558.761 140.167C551.894 140.167 546.328 145.739 546.328 152.611C546.328 159.483 551.894 165.055 558.761 165.055Z" fill="white"/>
<path d="M554.537 152.532C556.826 152.532 558.681 150.675 558.681 148.384C558.681 146.093 556.826 144.236 554.537 144.236C552.248 144.236 550.393 146.093 550.393 148.384C550.393 150.675 552.248 152.532 554.537 152.532Z" fill="#3F3D56"/>
<path d="M542.75 173.368C540.393 177.234 543.534 182.464 549.766 185.05C555.998 187.635 562.962 186.598 565.319 182.732L565.328 182.718C567.679 178.849 563.112 175.955 556.877 173.373C550.643 170.791 545.102 169.5 542.75 173.368Z" fill="white"/>
<path d="M557.694 117.127C560.942 104.034 575.28 96.3297 589.718 99.918C604.157 103.506 613.228 117.029 609.98 130.122C606.732 143.214 595.956 143.257 581.517 139.668C567.079 136.08 554.446 130.22 557.694 117.127Z" fill="#EEEEEE"/>
<path d="M684.155 257H0.844636C0.620625 257 0.405788 256.911 0.247388 256.752C0.0889876 256.594 0 256.379 0 256.154C0 255.93 0.0889876 255.715 0.247388 255.557C0.405788 255.398 0.620625 255.309 0.844636 255.309H684.155C684.379 255.309 684.594 255.398 684.753 255.557C684.911 255.715 685 255.93 685 256.154C685 256.379 684.911 256.594 684.753 256.752C684.594 256.911 684.379 257 684.155 257Z" fill="#CBCBCB"/>
</svg>
